<svg width="40" height="71" viewBox="0 0 40 71" fill="none" xmlns="http://www.w3.org/2000/svg">
<path d="M36.9115 42.0088C32.4411 36.2133 32.3551 29.6016 34.6904 23.7633C29.7414 28.6386 26.9548 34.6665 28.9007 40.7531C29.1476 41.5273 29.306 42.2857 29.4218 43.0599L29.4661 43.9936L29.19 44.0959L28.0149 41.3949C26.3452 36.798 26.0991 31.9513 27.7389 26.9736C31.0042 17.2238 26.7381 7.67699 18.959 0C22.5437 9.28256 22.2101 19.8368 14.954 29.1789C13.5603 30.9597 12.4143 32.77 11.5003 34.6229L10.9481 35.8484L10.9923 35.528C12.4577 29.2519 9.26505 23.5587 3.95316 19.268C6.71036 24.8286 7.1316 31.427 3.12581 37.703C-0.227065 44.1831 -1.08358 52.2267 1.54375 58.1968C5.65134 66.8234 11.1085 70.7935 18.5247 70.9974C19.598 71.0117 20.7015 70.9689 21.8339 70.8222C27.8857 70.1654 35.447 67.1892 37.8848 60.1389C40.2934 54.0939 41.4402 47.9042 36.9115 42.0088Z" fill="black"/>
</svg>
