<svg width="180" height="50" viewBox="0 0 180 50" fill="none" xmlns="http://www.w3.org/2000/svg">
<rect x="0.5" y="0.5" width="179" height="49" fill="#EFEFEF"/>
<path d="M17.192 30.5H18.158L20.846 21.988L23.534 30.5H24.486L27.496 20.476H26.474L24.402 27.378C24.29 27.756 24.164 28.246 24.01 29.016C23.856 28.372 23.716 27.868 23.562 27.364L21.378 20.476H20.328L18.144 27.364C17.99 27.854 17.85 28.288 17.682 29.016C17.556 28.358 17.43 27.854 17.29 27.364L15.26 20.476H14.21L17.192 30.5ZM37.5348 25.488C37.5348 22.436 35.5748 20.294 32.7608 20.294C29.9608 20.294 27.9868 22.45 27.9868 25.488C27.9868 28.526 29.9468 30.668 32.7608 30.668C35.5608 30.668 37.5348 28.526 37.5348 25.488ZM36.4988 25.488C36.4988 27.98 34.9728 29.702 32.7608 29.702C30.5488 29.702 29.0368 27.994 29.0368 25.488C29.0368 22.982 30.5488 21.274 32.7608 21.274C34.9728 21.274 36.4988 22.982 36.4988 25.488ZM40.3705 30.5V26.342H43.2965L45.3405 30.5H46.4605L44.3185 26.174C45.6065 25.824 46.3625 24.816 46.3625 23.374C46.3625 21.596 45.1305 20.476 43.1005 20.476H39.3625V30.5H40.3705ZM40.3705 21.386H43.1005C44.4725 21.386 45.3265 22.1 45.3265 23.402C45.3265 24.676 44.5145 25.432 43.1285 25.432H40.3705V21.386ZM49.3256 20.476H48.3176V30.5H49.3256V28.008L51.2996 25.558L54.2396 30.5H55.4156L51.9576 24.718L55.3596 20.476H54.1556L49.3256 26.51V20.476ZM62.8014 30.5H63.7674L66.4554 21.988L69.1434 30.5H70.0954L73.1054 20.476H72.0834L70.0114 27.378C69.8994 27.756 69.7734 28.246 69.6194 29.016C69.4654 28.372 69.3254 27.868 69.1714 27.364L66.9874 20.476H65.9374L63.7534 27.364C63.5994 27.854 63.4594 28.288 63.2914 29.016C63.1654 28.358 63.0394 27.854 62.8994 27.364L60.8694 20.476H59.8194L62.8014 30.5ZM75.5346 20.476H74.5266V30.5H75.5346V20.476ZM76.9219 21.4H80.0019V30.5H81.0099V21.4H84.1039V20.476H76.9219V21.4ZM86.4994 30.5V25.88H91.9174V30.5H92.9114V20.476H91.9174V24.942H86.4994V20.476H85.4914V30.5H86.4994ZM99.1753 27.014C99.1753 29.296 100.575 30.668 102.899 30.668C105.181 30.668 106.581 29.282 106.581 27.014V20.476H105.573V26.972C105.573 28.708 104.607 29.688 102.899 29.688C101.149 29.688 100.183 28.736 100.183 26.972V20.476H99.1753V27.014ZM108.35 23.08C108.35 24.452 109.176 25.348 110.744 25.726L112.438 26.146C113.516 26.398 114.02 26.986 114.02 27.882C114.02 29.03 113.082 29.744 111.612 29.744C110.24 29.744 109.316 29.058 109.26 28.008H108.224C108.35 29.646 109.666 30.668 111.612 30.668C113.684 30.668 115.028 29.562 115.028 27.826C115.028 26.468 114.216 25.572 112.648 25.194L110.926 24.774C109.876 24.508 109.358 23.948 109.358 23.066C109.358 21.932 110.282 21.204 111.696 21.204C112.956 21.204 113.726 21.848 113.838 22.982H114.86C114.706 21.302 113.516 20.294 111.71 20.294C109.694 20.294 108.35 21.4 108.35 23.08Z" fill="black"/>
<rect width="50" height="50" transform="translate(130)" fill="black"/>
<path fill-rule="evenodd" clip-rule="evenodd" d="M160.765 25L156.374 28.6371L156.75 29.0833L162 24.6961L156.75 20.3333L156.374 20.779L160.766 24.4167H148V25H160.765Z" fill="#EFEFEF"/>
<rect x="0.5" y="0.5" width="179" height="49" stroke="black"/>
</svg>
